<svg xmlns="http://www.w3.org/2000/svg" viewBox="0 0 1000 1000"><title>Champions</title><desc>A golden laurel-wreath trophy whose cup is a vinyl record with a glowing play triangle — champions of sound.</desc><defs><radialGradient id="bg" cx="50%" cy="45%" r="65%"><stop offset="0%" stop-color="#2a1f3d"/><stop offset="100%" stop-color="#0c0814"/></radialGradient><linearGradient id="gold" x1="0" y1="0" x2="0" y2="1"><stop offset="0%" stop-color="#ffe27a"/><stop offset="100%" stop-color="#c98a1d"/></linearGradient><radialGradient id="vinyl" cx="50%" cy="50%" r="50%"><stop offset="0%" stop-color="#1a1a22"/><stop offset="100%" stop-color="#000000"/></radialGradient></defs><rect width="1000" height="1000" fill="url(#bg)"/><g fill="none" stroke="url(#gold)" stroke-width="18" stroke-linecap="round"><path d="M 290 540 Q 180 420 220 270"/><path d="M 710 540 Q 820 420 780 270"/></g><g fill="url(#gold)"><ellipse cx="245" cy="310" rx="38" ry="18" transform="rotate(-55 245 310)"/><ellipse cx="225" cy="380" rx="42" ry="19" transform="rotate(-40 225 380)"/><ellipse cx="240" cy="450" rx="40" ry="18" transform="rotate(-20 240 450)"/><ellipse cx="285" cy="510" rx="36" ry="17" transform="rotate(-5 285 510)"/><ellipse cx="755" cy="310" rx="38" ry="18" transform="rotate(55 755 310)"/><ellipse cx="775" cy="380" rx="42" ry="19" transform="rotate(40 775 380)"/><ellipse cx="760" cy="450" rx="40" ry="18" transform="rotate(20 760 450)"/><ellipse cx="715" cy="510" rx="36" ry="17" transform="rotate(5 715 510)"/></g><circle cx="500" cy="490" r="210" fill="url(#vinyl)" stroke="url(#gold)" stroke-width="10"/><g fill="none" stroke="#3a3340" stroke-width="2"><circle cx="500" cy="490" r="180"/><circle cx="500" cy="490" r="160"/><circle cx="500" cy="490" r="140"/><circle cx="500" cy="490" r="120"/><circle cx="500" cy="490" r="100"/></g><circle cx="500" cy="490" r="60" fill="#e23b6f"/><polygon points="478,455 478,525 540,490" fill="#0c0814"/><circle cx="500" cy="490" r="6" fill="url(#gold)"/><rect x="430" y="720" width="140" height="36" rx="6" fill="url(#gold)"/><polygon points="420,756 580,756 560,830 440,830" fill="url(#gold)"/><rect x="380" y="830" width="240" height="28" rx="6" fill="url(#gold)"/><text x="500" y="920" text-anchor="middle" font-family="Georgia, serif" font-style="italic" font-size="56" fill="url(#gold)" letter-spacing="6">Champions</text></svg>
