<svg xmlns="http://www.w3.org/2000/svg" viewBox="0 0 1000 1000"><title>ngKitty-delulu-church</title><desc>A stained-glass cathedral window where a haloed pixel cat presides over the holy deploy button.</desc><defs><radialGradient id="sky" cx="0.5" cy="0.35" r="0.7"><stop offset="0" stop-color="#f4d35e"/><stop offset="0.55" stop-color="#e07a5f"/><stop offset="1" stop-color="#3d405b"/></radialGradient><linearGradient id="halo" x1="0" y1="0" x2="0" y2="1"><stop offset="0" stop-color="#f4d35e"/><stop offset="1" stop-color="#e07a5f"/></linearGradient></defs><rect width="1000" height="1000" fill="#1a1a2e"/><path d="M500 120 Q260 120 260 360 L260 820 Q260 860 300 860 L700 860 Q740 860 740 820 L740 360 Q740 120 500 120 Z" fill="url(#sky)"/><path d="M500 120 Q260 120 260 360 L260 820 Q260 860 300 860 L700 860 Q740 860 740 820 L740 360 Q740 120 500 120 Z" fill="none" stroke="#1a1a2e" stroke-width="14"/><line x1="500" y1="180" x2="500" y2="840" stroke="#1a1a2e" stroke-width="10"/><line x1="280" y1="500" x2="720" y2="500" stroke="#1a1a2e" stroke-width="10"/><path d="M280 360 Q500 200 720 360" fill="none" stroke="#1a1a2e" stroke-width="10"/><circle cx="500" cy="340" r="105" fill="none" stroke="#f4d35e" stroke-width="8"/><circle cx="500" cy="340" r="92" fill="#3d405b"/><path d="M440 305 L440 270 L470 290 L500 270 L530 290 L560 270 L560 305 Z" fill="#f4d35e"/><rect x="440" y="305" width="120" height="80" rx="6" fill="#f4d35e"/><circle cx="470" cy="335" r="8" fill="#1a1a2e"/><circle cx="530" cy="335" r="8" fill="#1a1a2e"/><path d="M495 355 L500 362 L505 355 Z" fill="#e07a5f"/><line x1="455" y1="360" x2="430" y2="358" stroke="#1a1a2e" stroke-width="3"/><line x1="455" y1="368" x2="432" y2="372" stroke="#1a1a2e" stroke-width="3"/><line x1="545" y1="360" x2="570" y2="358" stroke="#1a1a2e" stroke-width="3"/><line x1="545" y1="368" x2="568" y2="372" stroke="#1a1a2e" stroke-width="3"/><rect x="480" y="600" width="40" height="180" fill="#1a1a2e"/><rect x="420" y="640" width="160" height="32" fill="#1a1a2e"/><rect x="430" y="700" width="140" height="80" rx="14" fill="#e07a5f" stroke="#f4d35e" stroke-width="6"/><text x="500" y="755" font-family="Georgia, serif" font-size="36" font-weight="bold" fill="#f4d35e" text-anchor="middle">DEPLOY</text><circle cx="350" cy="240" r="6" fill="#f4d35e"/><circle cx="650" cy="240" r="6" fill="#f4d35e"/><circle cx="320" cy="430" r="4" fill="#f4d35e"/><circle cx="680" cy="430" r="4" fill="#f4d35e"/><path d="M380 560 L380 600 M365 575 L395 575" stroke="#3d405b" stroke-width="6" stroke-linecap="round"/><path d="M620 560 L620 600 M605 575 L635 575" stroke="#3d405b" stroke-width="6" stroke-linecap="round"/></svg>
